<svg width="900" height="400" xmlns="http://www.w3.org/2000/svg" style="vector-effect: non-scaling-stroke;" stroke="null">
 <g stroke="null" id="Layer_1">
  <title stroke="null">Layer 1</title>
  <path transform="rotate(49.284 439.085 252)" stroke="#000" id="svg_3" d="m-283.13708,252.0001l722.22213,-612.03376l722.22213,612.03376l-722.22213,612.03376l-722.22213,-612.03376z" fill="url(#svg_4)"/>
  <path id="svg_7" d="m447.23956,114.98252c24.86839,0 45.04305,20.28249 45.04305,45.25975c0,24.97727 -20.17466,45.24024 -45.04305,45.24024c-24.8684,0 -45.04306,20.28251 -45.04306,45.25976c0,24.97726 20.17466,45.24024 45.04306,45.24024c49.73678,0 90.10552,-40.5455 90.10552,-90.50001c0,-49.95452 -40.36874,-90.49999 -90.10552,-90.49999l0,0.00001zm0,31.11608c-7.77537,0 -14.08203,6.33425 -14.08203,14.14367c0,7.80943 6.30664,14.14367 14.08203,14.14367c7.77538,0 14.08202,-6.33425 14.08202,-14.14367c0,-7.80942 -6.30663,-14.14367 -14.08202,-14.14367zm0,90.50001c7.77136,0 14.08202,6.33827 14.08202,14.14367c0,7.80538 -6.31065,14.14368 -14.08202,14.14368c-7.77137,0 -14.08203,-6.3383 -14.08203,-14.14368c0,-7.80538 6.31066,-14.14367 14.08203,-14.14367zm88.08451,-31.05843c0,49.9174 -40.28965,90.38345 -89.98951,90.38345c-49.69983,0 -89.98951,-40.46605 -89.98951,-90.38345c0,-49.91742 40.28968,-90.38348 89.98951,-90.38348c49.69986,0 89.98951,40.46606 89.98951,90.38348z" stroke-width="0" stroke="#000" fill="#ffffff"/>
 </g>
 <defs style="vector-effect: non-scaling-stroke;" stroke="null">
  <linearGradient y2="0" x2="1" y1="0.58984" x1="0.34766" id="svg_4">
   <stop offset="0" stop-opacity="0.99609" stop-color="#7f00ff"/>
   <stop offset="1" stop-opacity="0.99609" stop-color="#ff00ff"/>
  </linearGradient>
 </defs>
</svg>